<svg xmlns="http://www.w3.org/2000/svg" xmlns:xlink="http://www.w3.org/1999/xlink" width="200" zoomAndPan="magnify" viewBox="0 0 150 149.999998" height="200" preserveAspectRatio="xMidYMid meet" version="1.0"><defs><g/><clipPath id="c6d2fbd11c"><path d="M 12.960938 56.433594 L 36.828125 56.433594 L 36.828125 83.257812 L 12.960938 83.257812 Z M 12.960938 56.433594 " clip-rule="nonzero"/></clipPath><clipPath id="1335bdcbfc"><path d="M 15.210938 56.433594 L 34.578125 56.433594 C 35.171875 56.433594 35.746094 56.671875 36.167969 57.09375 C 36.589844 57.515625 36.828125 58.085938 36.828125 58.683594 L 36.828125 81.007812 C 36.828125 81.605469 36.589844 82.179688 36.167969 82.601562 C 35.746094 83.023438 35.171875 83.257812 34.578125 83.257812 L 15.210938 83.257812 C 14.617188 83.257812 14.042969 83.023438 13.621094 82.601562 C 13.199219 82.179688 12.960938 81.605469 12.960938 81.007812 L 12.960938 58.683594 C 12.960938 58.085938 13.199219 57.515625 13.621094 57.09375 C 14.042969 56.671875 14.617188 56.433594 15.210938 56.433594 Z M 15.210938 56.433594 " clip-rule="nonzero"/></clipPath></defs><g clip-path="url(#c6d2fbd11c)"><g clip-path="url(#1335bdcbfc)"><path fill="#ffa500" d="M 12.960938 56.433594 L 36.828125 56.433594 L 36.828125 83.257812 L 12.960938 83.257812 Z M 12.960938 56.433594 " fill-opacity="1" fill-rule="nonzero"/></g></g><g fill="#ffffff" fill-opacity="1"><g transform="translate(39.250652, 71.045885)"><g><path d="M 1.265625 -0.503906 L 1.4375 -0.171875 L 1.820312 0 L 3.035156 0.0507812 L 3.902344 -0.015625 L 4.265625 -0.171875 L 4.472656 -0.695312 L 4.421875 -1.25 L 4.457031 -1.578125 L 4.4375 -3.414062 L 4.59375 -3.761719 L 4.941406 -3.917969 L 5.324219 -3.953125 L 5.6875 -3.882812 L 6.035156 -3.953125 L 6.378906 -3.917969 L 6.746094 -3.9375 L 7.089844 -3.902344 L 7.800781 -3.9375 L 8.167969 -4.109375 L 8.339844 -4.648438 L 8.324219 -6.191406 L 8.148438 -6.535156 L 7.785156 -6.675781 L 6.9375 -6.710938 L 6.015625 -6.640625 L 5.339844 -6.726562 L 4.957031 -6.710938 L 4.613281 -6.847656 L 4.421875 -7.214844 L 4.421875 -7.699219 L 4.457031 -8.027344 L 4.421875 -8.808594 L 4.59375 -9.15625 L 4.925781 -9.378906 L 5.480469 -9.378906 L 5.980469 -9.34375 L 6.292969 -9.363281 L 6.640625 -9.34375 L 7.003906 -9.378906 L 8.324219 -9.34375 L 8.667969 -9.519531 L 8.84375 -9.867188 L 8.808594 -10.75 L 8.84375 -11.410156 L 8.636719 -11.929688 L 8.339844 -12.121094 L 7.300781 -12.101562 L 6.917969 -12.15625 L 6.242188 -12.121094 L 5.929688 -12.15625 L 5.410156 -12.121094 L 5.0625 -12.136719 L 4.527344 -12.101562 L 3.847656 -12.101562 L 3.539062 -12.136719 L 2.652344 -12.136719 L 2.289062 -12.101562 L 1.804688 -12.121094 L 1.421875 -11.929688 L 1.316406 -11.617188 L 1.265625 -10.90625 L 1.316406 -10.386719 L 1.25 -8.445312 L 1.28125 -8.148438 L 1.300781 -7.785156 L 1.265625 -7.472656 L 1.300781 -7.074219 L 1.265625 -6.761719 L 1.25 -6.433594 L 1.28125 -6.101562 L 1.25 -5.703125 Z M 1.265625 -0.503906 "/></g></g></g><g fill="#ffffff" fill-opacity="1"><g transform="translate(48.697848, 71.045885)"><g><path d="M 0.832031 -0.503906 L 1.003906 -0.140625 L 1.351562 -0.015625 L 6.503906 0.015625 L 6.832031 -0.15625 L 7.023438 -0.46875 L 7.023438 -0.847656 L 6.988281 -1.160156 L 7.039062 -2.21875 L 6.796875 -2.515625 L 5.636719 -2.878906 L 5.445312 -3.226562 L 5.480469 -4.648438 L 5.410156 -5.339844 L 5.480469 -6.070312 L 5.445312 -6.589844 L 5.480469 -7.125 L 5.445312 -7.457031 L 5.480469 -7.800781 L 5.445312 -8.167969 L 5.445312 -8.894531 L 5.636719 -9.207031 L 5.964844 -9.398438 L 6.347656 -9.414062 L 6.675781 -9.605469 L 6.867188 -9.933594 L 6.867188 -10.957031 L 6.902344 -11.269531 L 6.867188 -11.617188 L 6.726562 -11.964844 L 6.171875 -12.121094 L 3.96875 -12.136719 L 3.589844 -12.101562 L 2.53125 -12.121094 L 2.203125 -12.101562 L 1.527344 -12.136719 L 1.144531 -11.964844 L 0.953125 -11.601562 L 0.953125 -11.269531 L 0.917969 -10.976562 L 0.917969 -10.59375 L 0.953125 -10.246094 L 0.953125 -9.917969 L 1.128906 -9.589844 L 2.183594 -9.222656 L 2.410156 -8.914062 L 2.359375 -7.4375 L 2.375 -7.144531 L 2.425781 -6.746094 L 2.410156 -6.035156 L 2.375 -5.6875 L 2.445312 -5.011719 L 2.359375 -4.664062 L 2.425781 -3.917969 L 2.394531 -3.242188 L 2.21875 -2.859375 L 1.074219 -2.496094 L 0.867188 -2.167969 L 0.832031 -1.839844 Z M 0.832031 -0.503906 "/></g></g></g><g fill="#ffffff" fill-opacity="1"><g transform="translate(56.567624, 71.045885)"><g><path d="M 0.226562 -0.484375 L 0.328125 -0.105469 L 0.675781 0.0351562 L 1.023438 0.015625 L 1.316406 0.0351562 L 1.664062 0 L 2.964844 0 L 3.398438 -0.140625 L 3.761719 -0.417969 L 4.144531 -1.003906 L 4.925781 -2.480469 L 5.6875 -3.660156 L 5.914062 -3.691406 L 6.101562 -3.382812 L 6.226562 -3.050781 L 6.46875 -2.757812 L 6.570312 -2.480469 L 7.820312 -0.398438 L 8.167969 -0.105469 L 8.546875 0.015625 L 9.222656 0 L 9.519531 0.0351562 L 10.921875 0 L 11.199219 -0.105469 L 11.269531 -0.46875 L 11.113281 -0.902344 L 10.386719 -2.027344 L 10.160156 -2.304688 L 10.003906 -2.582031 L 9.777344 -2.828125 L 9.640625 -3.136719 L 9.433594 -3.433594 L 9.191406 -3.691406 L 9.015625 -4.023438 L 8.84375 -4.28125 L 8.496094 -4.890625 L 8.269531 -5.132812 L 7.925781 -5.722656 L 7.679688 -6.015625 L 7.628906 -6.433594 L 7.769531 -6.847656 L 7.957031 -7.144531 L 8.097656 -7.4375 L 8.304688 -7.734375 L 8.566406 -8.011719 L 10.871094 -11.617188 L 10.75 -11.964844 L 10.402344 -12.085938 L 9.746094 -12.136719 L 9.378906 -12.101562 L 8.808594 -12.136719 L 8.480469 -12.121094 L 7.855469 -11.980469 L 7.523438 -11.667969 L 7.003906 -10.855469 L 6.78125 -10.578125 L 6.257812 -9.65625 L 6.050781 -9.363281 L 5.894531 -9.085938 L 5.667969 -9.066406 L 5.425781 -9.398438 L 4.59375 -10.835938 L 4.371094 -11.097656 L 4.230469 -11.390625 L 4.023438 -11.6875 L 3.726562 -11.980469 L 3.277344 -12.121094 L 1.128906 -12.136719 L 0.695312 -12.015625 L 0.640625 -11.582031 L 1.074219 -10.90625 L 1.28125 -10.613281 L 1.457031 -10.316406 L 1.699219 -10.074219 L 2.425781 -8.894531 L 2.636719 -8.617188 L 3.015625 -7.992188 L 3.242188 -7.75 L 3.414062 -7.457031 L 3.554688 -7.109375 L 3.761719 -6.8125 L 3.882812 -6.398438 L 3.796875 -5.980469 L 3.625 -5.738281 L 3.382812 -5.425781 L 3.242188 -5.132812 L 2.652344 -4.28125 L 2.546875 -4.023438 L 2.097656 -3.414062 L 1.960938 -3.171875 L 1.683594 -2.84375 L 1.542969 -2.546875 L 0.503906 -1.023438 Z M 0.226562 -0.484375 "/></g></g></g><g fill="#ffa500" fill-opacity="1"><g transform="translate(68.060297, 71.045885)"><g><path d="M 1.804688 0.0507812 L 2.148438 0 L 2.828125 0.0351562 L 3.207031 -0.015625 L 3.761719 0.015625 L 4.246094 -0.191406 L 4.457031 -0.503906 L 4.402344 -2.324219 L 4.457031 -2.859375 L 4.4375 -3.226562 L 4.472656 -3.847656 L 4.4375 -4.230469 L 4.4375 -4.90625 L 4.59375 -5.0625 L 4.769531 -4.992188 L 5.046875 -4.769531 L 5.253906 -4.507812 L 5.964844 -3.796875 L 6.191406 -3.519531 L 6.65625 -3.070312 L 7.023438 -2.808594 L 7.402344 -2.792969 L 7.75 -3.050781 L 7.992188 -3.3125 L 8.203125 -3.519531 L 8.6875 -4.09375 L 8.929688 -4.265625 L 9.640625 -4.992188 L 9.867188 -5.097656 L 10.003906 -4.835938 L 9.96875 -3.882812 L 10.023438 -3.191406 L 9.988281 -2.515625 L 10.023438 -1.871094 L 9.988281 -1.558594 L 10.023438 -0.78125 L 10.023438 -0.519531 L 10.160156 -0.121094 L 10.523438 -0.015625 L 12.621094 0.0507812 L 12.988281 -0.140625 L 13.195312 -0.640625 L 13.144531 -1.542969 L 13.175781 -1.890625 L 13.144531 -7.089844 L 13.175781 -7.472656 L 13.160156 -9.191406 L 13.175781 -9.519531 L 13.144531 -10.265625 L 13.160156 -10.558594 L 13.144531 -11.269531 L 13.175781 -11.601562 L 12.96875 -11.964844 L 12.605469 -12.15625 L 12.101562 -12 L 11.738281 -11.773438 L 11.011719 -11.011719 L 10.785156 -10.734375 L 10.578125 -10.542969 L 10.332031 -10.230469 L 8.808594 -8.667969 L 8.582031 -8.375 L 7.523438 -7.300781 L 7.214844 -7.089844 L 6.847656 -7.230469 L 6.640625 -7.523438 L 6.398438 -7.769531 L 6.085938 -8.167969 L 5.703125 -8.511719 L 4.125 -10.265625 L 3.882812 -10.472656 L 3.433594 -11.011719 L 3.15625 -11.253906 L 2.703125 -11.722656 L 2.304688 -12.015625 L 1.820312 -12.15625 L 1.4375 -11.980469 L 1.25 -11.617188 L 1.300781 -10.558594 L 1.25 -9.882812 L 1.28125 -9.570312 L 1.265625 -6.796875 L 1.300781 -6.449219 L 1.25 -4.699219 L 1.28125 -4.371094 L 1.265625 -0.539062 L 1.457031 -0.171875 Z M 1.804688 0.0507812 "/></g></g></g><g fill="#ffa500" fill-opacity="1"><g transform="translate(82.551777, 71.045885)"><g><path d="M 3.988281 -0.484375 L 4.179688 -0.191406 L 4.507812 -0.015625 L 5.132812 0.015625 L 5.480469 -0.015625 L 5.84375 0 L 6.328125 -0.015625 L 6.847656 -0.191406 L 7.023438 -0.539062 L 7.023438 -0.832031 L 6.988281 -1.195312 L 7.003906 -1.527344 L 6.988281 -1.839844 L 7.074219 -2.894531 L 7.023438 -3.257812 L 7.074219 -4.265625 L 7.003906 -4.578125 L 7.089844 -5.082031 L 7.699219 -6.136719 L 7.835938 -6.46875 L 8.027344 -6.761719 L 8.460938 -7.335938 L 10.457031 -10.628906 L 10.664062 -10.890625 L 10.785156 -11.199219 L 11.027344 -11.617188 L 10.976562 -12.03125 L 10.644531 -12.171875 L 10.300781 -12.121094 L 9.625 -12.171875 L 9.257812 -12.121094 L 8.601562 -12.121094 L 8.269531 -12.15625 L 7.835938 -11.980469 L 7.472656 -11.652344 L 7.179688 -11.0625 L 6.953125 -10.734375 L 6.847656 -10.402344 L 6.449219 -9.832031 L 6.191406 -9.207031 L 5.617188 -8.269531 L 5.375 -8.234375 L 4.976562 -8.859375 L 4.820312 -9.171875 L 4.714844 -9.519531 L 3.847656 -11.042969 L 3.660156 -11.339844 L 3.519531 -11.6875 L 3.136719 -11.964844 L 2.703125 -12.15625 L 0.417969 -12.121094 L 0.0351562 -12.015625 L 0 -11.632812 L 0.171875 -11.21875 L 2.046875 -8.253906 L 2.183594 -7.957031 L 3.726562 -5.53125 L 3.867188 -5.082031 L 3.953125 -4.578125 L 3.9375 -3.207031 L 3.96875 -2.859375 L 3.988281 -2.53125 L 3.953125 -2.21875 L 3.9375 -1.558594 L 4.023438 -0.847656 Z M 3.988281 -0.484375 "/></g></g></g><g fill="#ffffff" fill-opacity="1"><g transform="translate(93.582229, 71.045885)"><g><path d="M 1.804688 0.0507812 L 2.148438 0 L 2.828125 0.0351562 L 3.207031 -0.015625 L 3.761719 0.015625 L 4.246094 -0.191406 L 4.457031 -0.503906 L 4.402344 -2.324219 L 4.457031 -2.859375 L 4.4375 -3.226562 L 4.472656 -3.847656 L 4.4375 -4.230469 L 4.4375 -4.90625 L 4.59375 -5.0625 L 4.769531 -4.992188 L 5.046875 -4.769531 L 5.253906 -4.507812 L 5.964844 -3.796875 L 6.191406 -3.519531 L 6.65625 -3.070312 L 7.023438 -2.808594 L 7.402344 -2.792969 L 7.75 -3.050781 L 7.992188 -3.3125 L 8.203125 -3.519531 L 8.6875 -4.09375 L 8.929688 -4.265625 L 9.640625 -4.992188 L 9.867188 -5.097656 L 10.003906 -4.835938 L 9.96875 -3.882812 L 10.023438 -3.191406 L 9.988281 -2.515625 L 10.023438 -1.871094 L 9.988281 -1.558594 L 10.023438 -0.78125 L 10.023438 -0.519531 L 10.160156 -0.121094 L 10.523438 -0.015625 L 12.621094 0.0507812 L 12.988281 -0.140625 L 13.195312 -0.640625 L 13.144531 -1.542969 L 13.175781 -1.890625 L 13.144531 -7.089844 L 13.175781 -7.472656 L 13.160156 -9.191406 L 13.175781 -9.519531 L 13.144531 -10.265625 L 13.160156 -10.558594 L 13.144531 -11.269531 L 13.175781 -11.601562 L 12.96875 -11.964844 L 12.605469 -12.15625 L 12.101562 -12 L 11.738281 -11.773438 L 11.011719 -11.011719 L 10.785156 -10.734375 L 10.578125 -10.542969 L 10.332031 -10.230469 L 8.808594 -8.667969 L 8.582031 -8.375 L 7.523438 -7.300781 L 7.214844 -7.089844 L 6.847656 -7.230469 L 6.640625 -7.523438 L 6.398438 -7.769531 L 6.085938 -8.167969 L 5.703125 -8.511719 L 4.125 -10.265625 L 3.882812 -10.472656 L 3.433594 -11.011719 L 3.15625 -11.253906 L 2.703125 -11.722656 L 2.304688 -12.015625 L 1.820312 -12.15625 L 1.4375 -11.980469 L 1.25 -11.617188 L 1.300781 -10.558594 L 1.25 -9.882812 L 1.28125 -9.570312 L 1.265625 -6.796875 L 1.300781 -6.449219 L 1.25 -4.699219 L 1.28125 -4.371094 L 1.265625 -0.539062 L 1.457031 -0.171875 Z M 1.804688 0.0507812 "/></g></g></g><g fill="#ffffff" fill-opacity="1"><g transform="translate(108.073708, 71.045885)"><g><path d="M 0.832031 -0.503906 L 1.003906 -0.140625 L 1.351562 -0.015625 L 6.503906 0.015625 L 6.832031 -0.15625 L 7.023438 -0.46875 L 7.023438 -0.847656 L 6.988281 -1.160156 L 7.039062 -2.21875 L 6.796875 -2.515625 L 5.636719 -2.878906 L 5.445312 -3.226562 L 5.480469 -4.648438 L 5.410156 -5.339844 L 5.480469 -6.070312 L 5.445312 -6.589844 L 5.480469 -7.125 L 5.445312 -7.457031 L 5.480469 -7.800781 L 5.445312 -8.167969 L 5.445312 -8.894531 L 5.636719 -9.207031 L 5.964844 -9.398438 L 6.347656 -9.414062 L 6.675781 -9.605469 L 6.867188 -9.933594 L 6.867188 -10.957031 L 6.902344 -11.269531 L 6.867188 -11.617188 L 6.726562 -11.964844 L 6.171875 -12.121094 L 3.96875 -12.136719 L 3.589844 -12.101562 L 2.53125 -12.121094 L 2.203125 -12.101562 L 1.527344 -12.136719 L 1.144531 -11.964844 L 0.953125 -11.601562 L 0.953125 -11.269531 L 0.917969 -10.976562 L 0.917969 -10.59375 L 0.953125 -10.246094 L 0.953125 -9.917969 L 1.128906 -9.589844 L 2.183594 -9.222656 L 2.410156 -8.914062 L 2.359375 -7.4375 L 2.375 -7.144531 L 2.425781 -6.746094 L 2.410156 -6.035156 L 2.375 -5.6875 L 2.445312 -5.011719 L 2.359375 -4.664062 L 2.425781 -3.917969 L 2.394531 -3.242188 L 2.21875 -2.859375 L 1.074219 -2.496094 L 0.867188 -2.167969 L 0.832031 -1.839844 Z M 0.832031 -0.503906 "/></g></g></g><g fill="#ffffff" fill-opacity="1"><g transform="translate(115.943484, 71.045885)"><g><path d="M 1.300781 -0.503906 L 1.457031 -0.191406 L 2.011719 0.015625 L 8.148438 -0.015625 L 8.636719 -0.191406 L 8.824219 -0.503906 L 8.789062 -0.882812 L 8.808594 -1.230469 L 8.84375 -1.542969 L 8.789062 -1.925781 L 8.84375 -2.253906 L 8.617188 -2.636719 L 8.339844 -2.808594 L 7.957031 -2.757812 L 4.90625 -2.792969 L 4.542969 -2.949219 L 4.4375 -3.328125 L 4.457031 -3.96875 L 4.402344 -4.300781 L 4.421875 -4.679688 L 4.386719 -5.027344 L 4.421875 -5.390625 L 4.402344 -6.257812 L 4.457031 -6.746094 L 4.402344 -7.125 L 4.457031 -7.492188 L 4.402344 -10.195312 L 4.4375 -10.578125 L 4.402344 -11.425781 L 4.230469 -11.945312 L 3.78125 -12.15625 L 1.976562 -12.121094 L 1.472656 -11.929688 L 1.25 -11.460938 L 1.351562 -10.558594 L 1.316406 -10.230469 L 1.265625 -9.867188 L 1.316406 -9.519531 L 1.351562 -9.191406 L 1.300781 -8.808594 L 1.316406 -8.480469 L 1.28125 -8.132812 L 1.335938 -7.769531 L 1.28125 -7.457031 L 1.316406 -7.109375 L 1.265625 -6.78125 L 1.316406 -6.035156 L 1.265625 -5.703125 L 1.316406 -5.011719 L 1.265625 -4.664062 L 1.28125 -3.96875 L 1.316406 -3.660156 L 1.300781 -1.542969 L 1.335938 -1.195312 L 1.265625 -0.867188 Z M 1.300781 -0.503906 "/></g></g></g><g fill="#ffffff" fill-opacity="1"><g transform="translate(125.269344, 71.045885)"><g><path d="M 1.300781 -0.503906 L 1.457031 -0.191406 L 2.011719 0.015625 L 8.148438 -0.015625 L 8.636719 -0.191406 L 8.824219 -0.503906 L 8.789062 -0.882812 L 8.808594 -1.230469 L 8.84375 -1.542969 L 8.789062 -1.925781 L 8.84375 -2.253906 L 8.617188 -2.636719 L 8.339844 -2.808594 L 7.957031 -2.757812 L 4.90625 -2.792969 L 4.542969 -2.949219 L 4.4375 -3.328125 L 4.457031 -3.96875 L 4.402344 -4.300781 L 4.421875 -4.679688 L 4.386719 -5.027344 L 4.421875 -5.390625 L 4.402344 -6.257812 L 4.457031 -6.746094 L 4.402344 -7.125 L 4.457031 -7.492188 L 4.402344 -10.195312 L 4.4375 -10.578125 L 4.402344 -11.425781 L 4.230469 -11.945312 L 3.78125 -12.15625 L 1.976562 -12.121094 L 1.472656 -11.929688 L 1.25 -11.460938 L 1.351562 -10.558594 L 1.316406 -10.230469 L 1.265625 -9.867188 L 1.316406 -9.519531 L 1.351562 -9.191406 L 1.300781 -8.808594 L 1.316406 -8.480469 L 1.28125 -8.132812 L 1.335938 -7.769531 L 1.28125 -7.457031 L 1.316406 -7.109375 L 1.265625 -6.78125 L 1.316406 -6.035156 L 1.265625 -5.703125 L 1.316406 -5.011719 L 1.265625 -4.664062 L 1.28125 -3.96875 L 1.316406 -3.660156 L 1.300781 -1.542969 L 1.335938 -1.195312 L 1.265625 -0.867188 Z M 1.300781 -0.503906 "/></g></g></g><g fill="#ffffff" fill-opacity="1"><g transform="translate(40.938735, 81.190511)"><g><path d="M 1.929688 0.0976562 C 3.117188 0.0976562 3.648438 -0.441406 3.648438 -1.242188 C 3.648438 -1.988281 3.246094 -2.332031 2.53125 -2.523438 L 1.738281 -2.722656 C 1.183594 -2.867188 0.972656 -3.046875 0.972656 -3.441406 C 0.972656 -3.839844 1.25 -4.109375 1.988281 -4.109375 C 2.558594 -4.109375 3.117188 -3.984375 3.390625 -3.886719 L 3.363281 -4.511719 C 3.117188 -4.597656 2.570312 -4.71875 1.9375 -4.71875 C 0.800781 -4.71875 0.285156 -4.191406 0.285156 -3.429688 C 0.285156 -2.710938 0.652344 -2.347656 1.355469 -2.160156 L 2.167969 -1.957031 C 2.722656 -1.8125 2.953125 -1.632812 2.953125 -1.230469 C 2.953125 -0.785156 2.65625 -0.507812 1.898438 -0.507812 C 1.269531 -0.507812 0.632812 -0.667969 0.324219 -0.785156 L 0.421875 -0.125 C 0.6875 -0.03125 1.273438 0.0976562 1.929688 0.0976562 Z M 1.929688 0.0976562 "/></g></g></g><g fill="#ffffff" fill-opacity="1"><g transform="translate(44.809875, 81.190511)"><g><path d="M 1.976562 0.0664062 C 2.371094 0.0664062 2.75 -0.0195312 2.925781 -0.078125 L 3.027344 -0.660156 C 2.828125 -0.589844 2.40625 -0.488281 1.996094 -0.488281 C 1.222656 -0.488281 0.945312 -0.832031 0.933594 -1.46875 L 3.21875 -1.46875 L 3.21875 -1.679688 C 3.21875 -2.90625 2.691406 -3.410156 1.777344 -3.410156 C 0.804688 -3.410156 0.289062 -2.808594 0.289062 -1.683594 C 0.289062 -0.546875 0.761719 0.0664062 1.976562 0.0664062 Z M 0.933594 -1.917969 C 0.953125 -2.550781 1.253906 -2.882812 1.777344 -2.882812 C 2.273438 -2.882812 2.589844 -2.605469 2.609375 -1.917969 Z M 0.933594 -1.917969 "/></g></g></g><g fill="#ffffff" fill-opacity="1"><g transform="translate(48.304469, 81.190511)"><g><path d="M 0.496094 0 L 1.128906 0 L 1.128906 -1.941406 C 1.128906 -2.570312 1.453125 -2.855469 1.976562 -2.855469 C 2.253906 -2.855469 2.476562 -2.769531 2.5625 -2.710938 L 2.523438 -3.324219 C 2.453125 -3.363281 2.273438 -3.410156 2.066406 -3.410156 C 1.617188 -3.410156 1.335938 -3.25 1.128906 -2.90625 L 1.03125 -3.351562 L 0.496094 -3.351562 Z M 0.496094 0 "/></g></g></g><g fill="#ffffff" fill-opacity="1"><g transform="translate(50.966703, 81.190511)"><g><path d="M 2.617188 -3.351562 L 1.683594 -0.785156 L 0.761719 -3.351562 L 0.078125 -3.351562 L 1.359375 0 L 2.003906 0 L 3.277344 -3.351562 Z M 2.617188 -3.351562 "/></g></g></g><g fill="#ffffff" fill-opacity="1"><g transform="translate(54.329177, 81.190511)"><g><path d="M 0.503906 -3.847656 L 1.136719 -3.847656 L 1.136719 -4.566406 L 0.503906 -4.566406 Z M 0.503906 0 L 1.136719 0 L 1.136719 -3.351562 L 0.503906 -3.351562 Z M 0.503906 0 "/></g></g></g><g fill="#ffffff" fill-opacity="1"><g transform="translate(55.97408, 81.190511)"><g><path d="M 1.804688 0.0664062 C 2.226562 0.0664062 2.550781 -0.03125 2.675781 -0.105469 L 2.777344 -0.695312 C 2.597656 -0.609375 2.226562 -0.488281 1.855469 -0.488281 C 1.230469 -0.488281 0.9375 -0.832031 0.9375 -1.671875 C 0.9375 -2.511719 1.230469 -2.855469 1.875 -2.855469 C 2.199219 -2.855469 2.539062 -2.753906 2.703125 -2.675781 L 2.667969 -3.246094 C 2.542969 -3.3125 2.21875 -3.410156 1.824219 -3.410156 C 0.785156 -3.410156 0.289062 -2.855469 0.289062 -1.671875 C 0.289062 -0.488281 0.785156 0.0664062 1.804688 0.0664062 Z M 1.804688 0.0664062 "/></g></g></g><g fill="#ffffff" fill-opacity="1"><g transform="translate(58.960011, 81.190511)"><g><path d="M 1.976562 0.0664062 C 2.371094 0.0664062 2.75 -0.0195312 2.925781 -0.078125 L 3.027344 -0.660156 C 2.828125 -0.589844 2.40625 -0.488281 1.996094 -0.488281 C 1.222656 -0.488281 0.945312 -0.832031 0.933594 -1.46875 L 3.21875 -1.46875 L 3.21875 -1.679688 C 3.21875 -2.90625 2.691406 -3.410156 1.777344 -3.410156 C 0.804688 -3.410156 0.289062 -2.808594 0.289062 -1.683594 C 0.289062 -0.546875 0.761719 0.0664062 1.976562 0.0664062 Z M 0.933594 -1.917969 C 0.953125 -2.550781 1.253906 -2.882812 1.777344 -2.882812 C 2.273438 -2.882812 2.589844 -2.605469 2.609375 -1.917969 Z M 0.933594 -1.917969 "/></g></g></g><g fill="#ffffff" fill-opacity="1"><g transform="translate(62.454604, 81.190511)"><g/></g></g><g fill="#ffffff" fill-opacity="1"><g transform="translate(63.987205, 81.190511)"><g><path d="M 0.695312 0 L 1.328125 0 L 1.328125 -2.816406 L 2.367188 -2.816406 L 2.367188 -3.351562 L 1.328125 -3.351562 L 1.328125 -3.457031 C 1.328125 -3.945312 1.539062 -4.167969 1.929688 -4.167969 C 2.179688 -4.167969 2.40625 -4.117188 2.496094 -4.082031 L 2.464844 -4.625 C 2.351562 -4.660156 2.109375 -4.703125 1.851562 -4.703125 C 1.144531 -4.703125 0.695312 -4.300781 0.695312 -3.457031 L 0.695312 -3.351562 L 0.144531 -3.351562 L 0.144531 -2.816406 L 0.695312 -2.816406 Z M 0.695312 0 "/></g></g></g><g fill="#ffffff" fill-opacity="1"><g transform="translate(66.431441, 81.190511)"><g><path d="M 1.757812 0.0664062 C 2.769531 0.0664062 3.21875 -0.46875 3.21875 -1.671875 C 3.21875 -2.875 2.769531 -3.410156 1.757812 -3.410156 C 0.753906 -3.410156 0.296875 -2.875 0.296875 -1.671875 C 0.296875 -0.46875 0.753906 0.0664062 1.757812 0.0664062 Z M 1.757812 -0.488281 C 1.183594 -0.488281 0.945312 -0.824219 0.945312 -1.671875 C 0.945312 -2.519531 1.183594 -2.855469 1.757812 -2.855469 C 2.339844 -2.855469 2.578125 -2.519531 2.578125 -1.671875 C 2.578125 -0.824219 2.339844 -0.488281 1.757812 -0.488281 Z M 1.757812 -0.488281 "/></g></g></g><g fill="#ffffff" fill-opacity="1"><g transform="translate(69.959067, 81.190511)"><g><path d="M 0.496094 0 L 1.128906 0 L 1.128906 -1.941406 C 1.128906 -2.570312 1.453125 -2.855469 1.976562 -2.855469 C 2.253906 -2.855469 2.476562 -2.769531 2.5625 -2.710938 L 2.523438 -3.324219 C 2.453125 -3.363281 2.273438 -3.410156 2.066406 -3.410156 C 1.617188 -3.410156 1.335938 -3.25 1.128906 -2.90625 L 1.03125 -3.351562 L 0.496094 -3.351562 Z M 0.496094 0 "/></g></g></g><g fill="#ffffff" fill-opacity="1"><g transform="translate(72.621301, 81.190511)"><g/></g></g><g fill="#ffffff" fill-opacity="1"><g transform="translate(74.153903, 81.190511)"><g><path d="M 1.929688 0.0976562 C 3.117188 0.0976562 3.648438 -0.441406 3.648438 -1.242188 C 3.648438 -1.988281 3.246094 -2.332031 2.53125 -2.523438 L 1.738281 -2.722656 C 1.183594 -2.867188 0.972656 -3.046875 0.972656 -3.441406 C 0.972656 -3.839844 1.25 -4.109375 1.988281 -4.109375 C 2.558594 -4.109375 3.117188 -3.984375 3.390625 -3.886719 L 3.363281 -4.511719 C 3.117188 -4.597656 2.570312 -4.71875 1.9375 -4.71875 C 0.800781 -4.71875 0.285156 -4.191406 0.285156 -3.429688 C 0.285156 -2.710938 0.652344 -2.347656 1.355469 -2.160156 L 2.167969 -1.957031 C 2.722656 -1.8125 2.953125 -1.632812 2.953125 -1.230469 C 2.953125 -0.785156 2.65625 -0.507812 1.898438 -0.507812 C 1.269531 -0.507812 0.632812 -0.667969 0.324219 -0.785156 L 0.421875 -0.125 C 0.6875 -0.03125 1.273438 0.0976562 1.929688 0.0976562 Z M 1.929688 0.0976562 "/></g></g></g><g fill="#ffffff" fill-opacity="1"><g transform="translate(78.025043, 81.190511)"><g><path d="M 1.976562 0.0664062 C 2.371094 0.0664062 2.75 -0.0195312 2.925781 -0.078125 L 3.027344 -0.660156 C 2.828125 -0.589844 2.40625 -0.488281 1.996094 -0.488281 C 1.222656 -0.488281 0.945312 -0.832031 0.933594 -1.46875 L 3.21875 -1.46875 L 3.21875 -1.679688 C 3.21875 -2.90625 2.691406 -3.410156 1.777344 -3.410156 C 0.804688 -3.410156 0.289062 -2.808594 0.289062 -1.683594 C 0.289062 -0.546875 0.761719 0.0664062 1.976562 0.0664062 Z M 0.933594 -1.917969 C 0.953125 -2.550781 1.253906 -2.882812 1.777344 -2.882812 C 2.273438 -2.882812 2.589844 -2.605469 2.609375 -1.917969 Z M 0.933594 -1.917969 "/></g></g></g><g fill="#ffffff" fill-opacity="1"><g transform="translate(81.519636, 81.190511)"><g><path d="M 1.347656 0.0664062 C 1.902344 0.0664062 2.226562 -0.125 2.378906 -0.449219 L 2.476562 0 L 3.011719 0 L 3.011719 -2.121094 C 3.011719 -2.933594 2.625 -3.390625 1.664062 -3.390625 C 1.222656 -3.390625 0.800781 -3.324219 0.601562 -3.277344 L 0.503906 -2.703125 C 0.71875 -2.761719 1.15625 -2.835938 1.554688 -2.835938 C 2.175781 -2.835938 2.378906 -2.609375 2.378906 -2.121094 L 2.378906 -1.9375 L 1.40625 -1.9375 C 0.632812 -1.9375 0.230469 -1.574219 0.230469 -0.972656 C 0.230469 -0.335938 0.613281 0.0664062 1.347656 0.0664062 Z M 1.488281 -0.4375 C 1.058594 -0.4375 0.867188 -0.632812 0.867188 -0.972656 C 0.867188 -1.300781 1.058594 -1.488281 1.511719 -1.488281 L 2.378906 -1.488281 L 2.378906 -1.253906 C 2.378906 -0.667969 2.0625 -0.4375 1.488281 -0.4375 Z M 1.488281 -0.4375 "/></g></g></g><g fill="#ffffff" fill-opacity="1"><g transform="translate(84.994411, 81.190511)"><g><path d="M 4.136719 -3.410156 C 3.628906 -3.410156 3.289062 -3.226562 3.054688 -2.828125 C 2.894531 -3.210938 2.550781 -3.410156 2.066406 -3.410156 C 1.585938 -3.410156 1.300781 -3.21875 1.128906 -2.902344 L 1.03125 -3.351562 L 0.496094 -3.351562 L 0.496094 0.0078125 L 1.128906 0.0078125 L 1.128906 -1.917969 C 1.128906 -2.53125 1.339844 -2.839844 1.882812 -2.839844 C 2.398438 -2.839844 2.605469 -2.53125 2.605469 -1.917969 L 2.605469 0.0078125 L 3.238281 0.0078125 L 3.238281 -1.917969 C 3.238281 -2.53125 3.457031 -2.839844 3.996094 -2.839844 C 4.507812 -2.839844 4.710938 -2.53125 4.710938 -1.917969 L 4.710938 0.0078125 L 5.347656 0.0078125 L 5.347656 -2.054688 C 5.347656 -2.886719 4.949219 -3.410156 4.136719 -3.410156 Z M 4.136719 -3.410156 "/></g></g></g><g fill="#ffffff" fill-opacity="1"><g transform="translate(90.801121, 81.190511)"><g><path d="M 0.503906 0 L 1.136719 0 L 1.136719 -4.683594 L 0.503906 -4.585938 Z M 0.503906 0 "/></g></g></g><g fill="#ffffff" fill-opacity="1"><g transform="translate(92.446024, 81.190511)"><g><path d="M 1.976562 0.0664062 C 2.371094 0.0664062 2.75 -0.0195312 2.925781 -0.078125 L 3.027344 -0.660156 C 2.828125 -0.589844 2.40625 -0.488281 1.996094 -0.488281 C 1.222656 -0.488281 0.945312 -0.832031 0.933594 -1.46875 L 3.21875 -1.46875 L 3.21875 -1.679688 C 3.21875 -2.90625 2.691406 -3.410156 1.777344 -3.410156 C 0.804688 -3.410156 0.289062 -2.808594 0.289062 -1.683594 C 0.289062 -0.546875 0.761719 0.0664062 1.976562 0.0664062 Z M 0.933594 -1.917969 C 0.953125 -2.550781 1.253906 -2.882812 1.777344 -2.882812 C 2.273438 -2.882812 2.589844 -2.605469 2.609375 -1.917969 Z M 0.933594 -1.917969 "/></g></g></g><g fill="#ffffff" fill-opacity="1"><g transform="translate(95.940617, 81.190511)"><g><path d="M 1.511719 0.0742188 C 2.464844 0.0742188 2.875 -0.304688 2.875 -0.933594 C 2.875 -1.488281 2.628906 -1.769531 1.960938 -1.910156 L 1.421875 -2.015625 C 1.03125 -2.089844 0.910156 -2.207031 0.910156 -2.445312 C 0.910156 -2.695312 1.117188 -2.859375 1.710938 -2.859375 C 2.160156 -2.859375 2.539062 -2.753906 2.703125 -2.675781 L 2.664062 -3.25 C 2.484375 -3.316406 2.089844 -3.410156 1.644531 -3.410156 C 0.714844 -3.410156 0.296875 -3.03125 0.296875 -2.425781 C 0.296875 -1.898438 0.542969 -1.605469 1.191406 -1.472656 L 1.746094 -1.359375 C 2.148438 -1.28125 2.253906 -1.167969 2.253906 -0.917969 C 2.253906 -0.652344 2.046875 -0.476562 1.46875 -0.476562 C 0.976562 -0.476562 0.507812 -0.601562 0.296875 -0.695312 L 0.398438 -0.113281 C 0.59375 -0.03125 1.039062 0.0742188 1.511719 0.0742188 Z M 1.511719 0.0742188 "/></g></g></g><g fill="#ffffff" fill-opacity="1"><g transform="translate(99.065274, 81.190511)"><g><path d="M 1.511719 0.0742188 C 2.464844 0.0742188 2.875 -0.304688 2.875 -0.933594 C 2.875 -1.488281 2.628906 -1.769531 1.960938 -1.910156 L 1.421875 -2.015625 C 1.03125 -2.089844 0.910156 -2.207031 0.910156 -2.445312 C 0.910156 -2.695312 1.117188 -2.859375 1.710938 -2.859375 C 2.160156 -2.859375 2.539062 -2.753906 2.703125 -2.675781 L 2.664062 -3.25 C 2.484375 -3.316406 2.089844 -3.410156 1.644531 -3.410156 C 0.714844 -3.410156 0.296875 -3.03125 0.296875 -2.425781 C 0.296875 -1.898438 0.542969 -1.605469 1.191406 -1.472656 L 1.746094 -1.359375 C 2.148438 -1.28125 2.253906 -1.167969 2.253906 -0.917969 C 2.253906 -0.652344 2.046875 -0.476562 1.46875 -0.476562 C 0.976562 -0.476562 0.507812 -0.601562 0.296875 -0.695312 L 0.398438 -0.113281 C 0.59375 -0.03125 1.039062 0.0742188 1.511719 0.0742188 Z M 1.511719 0.0742188 "/></g></g></g><g fill="#ffffff" fill-opacity="1"><g transform="translate(102.189931, 81.190511)"><g/></g></g><g fill="#ffffff" fill-opacity="1"><g transform="translate(103.722533, 81.190511)"><g><path d="M 5.027344 -4.625 L 4.328125 -1.019531 L 2.992188 -4.625 L 2.902344 -4.625 L 1.554688 -1.019531 L 0.851562 -4.625 L 0.171875 -4.625 L 1.136719 0 L 1.804688 0 L 2.933594 -3.097656 L 4.070312 0 L 4.738281 0 L 5.695312 -4.625 Z M 5.027344 -4.625 "/></g></g></g><g fill="#ffffff" fill-opacity="1"><g transform="translate(109.595304, 81.190511)"><g><path d="M 1.757812 0.0664062 C 2.769531 0.0664062 3.21875 -0.46875 3.21875 -1.671875 C 3.21875 -2.875 2.769531 -3.410156 1.757812 -3.410156 C 0.753906 -3.410156 0.296875 -2.875 0.296875 -1.671875 C 0.296875 -0.46875 0.753906 0.0664062 1.757812 0.0664062 Z M 1.757812 -0.488281 C 1.183594 -0.488281 0.945312 -0.824219 0.945312 -1.671875 C 0.945312 -2.519531 1.183594 -2.855469 1.757812 -2.855469 C 2.339844 -2.855469 2.578125 -2.519531 2.578125 -1.671875 C 2.578125 -0.824219 2.339844 -0.488281 1.757812 -0.488281 Z M 1.757812 -0.488281 "/></g></g></g><g fill="#ffffff" fill-opacity="1"><g transform="translate(113.122933, 81.190511)"><g><path d="M 0.496094 0 L 1.128906 0 L 1.128906 -1.941406 C 1.128906 -2.570312 1.453125 -2.855469 1.976562 -2.855469 C 2.253906 -2.855469 2.476562 -2.769531 2.5625 -2.710938 L 2.523438 -3.324219 C 2.453125 -3.363281 2.273438 -3.410156 2.066406 -3.410156 C 1.617188 -3.410156 1.335938 -3.25 1.128906 -2.90625 L 1.03125 -3.351562 L 0.496094 -3.351562 Z M 0.496094 0 "/></g></g></g><g fill="#ffffff" fill-opacity="1"><g transform="translate(115.785172, 81.190511)"><g><path d="M 2.691406 0 L 3.441406 0 L 2.140625 -1.730469 L 3.351562 -3.351562 L 2.625 -3.351562 L 1.625 -1.976562 L 1.128906 -1.976562 L 1.128906 -4.683594 L 0.496094 -4.585938 L 0.496094 0 L 1.128906 0 L 1.128906 -1.441406 L 1.632812 -1.441406 Z M 2.691406 0 "/></g></g></g><g fill="#ffffff" fill-opacity="1"><g transform="translate(119.286372, 81.190511)"><g><path d="M 1.757812 0.0664062 C 2.769531 0.0664062 3.21875 -0.46875 3.21875 -1.671875 C 3.21875 -2.875 2.769531 -3.410156 1.757812 -3.410156 C 0.753906 -3.410156 0.296875 -2.875 0.296875 -1.671875 C 0.296875 -0.46875 0.753906 0.0664062 1.757812 0.0664062 Z M 1.757812 -0.488281 C 1.183594 -0.488281 0.945312 -0.824219 0.945312 -1.671875 C 0.945312 -2.519531 1.183594 -2.855469 1.757812 -2.855469 C 2.339844 -2.855469 2.578125 -2.519531 2.578125 -1.671875 C 2.578125 -0.824219 2.339844 -0.488281 1.757812 -0.488281 Z M 1.757812 -0.488281 "/></g></g></g><g fill="#ffffff" fill-opacity="1"><g transform="translate(122.814001, 81.190511)"><g><path d="M 1.691406 0.0664062 C 2.199219 0.0664062 2.503906 -0.125 2.683594 -0.441406 L 2.789062 0 L 3.316406 0 L 3.316406 -3.351562 L 2.683594 -3.351562 L 2.683594 -1.445312 C 2.683594 -0.8125 2.457031 -0.503906 1.871094 -0.503906 C 1.316406 -0.503906 1.089844 -0.8125 1.089844 -1.445312 L 1.089844 -3.351562 L 0.457031 -3.351562 L 0.457031 -1.308594 C 0.457031 -0.460938 0.859375 0.0664062 1.691406 0.0664062 Z M 1.691406 0.0664062 "/></g></g></g><g fill="#ffffff" fill-opacity="1"><g transform="translate(126.632291, 81.190511)"><g><path d="M 1.910156 -0.496094 C 1.511719 -0.496094 1.300781 -0.679688 1.300781 -1.230469 L 1.300781 -2.816406 L 2.476562 -2.816406 L 2.476562 -3.351562 L 1.300781 -3.351562 L 1.300781 -4.15625 L 0.667969 -4.011719 L 0.667969 -3.351562 L 0.117188 -3.351562 L 0.117188 -2.816406 L 0.667969 -2.816406 L 0.667969 -1.230469 C 0.667969 -0.332031 1.105469 0.0664062 1.804688 0.0664062 C 2.109375 0.0664062 2.347656 -0.0078125 2.4375 -0.0585938 L 2.53125 -0.613281 C 2.417969 -0.566406 2.167969 -0.496094 1.910156 -0.496094 Z M 1.910156 -0.496094 "/></g></g></g><g fill="#ffffff" fill-opacity="1"><g transform="translate(129.281307, 81.190511)"><g><path d="M 1.511719 0.0742188 C 2.464844 0.0742188 2.875 -0.304688 2.875 -0.933594 C 2.875 -1.488281 2.628906 -1.769531 1.960938 -1.910156 L 1.421875 -2.015625 C 1.03125 -2.089844 0.910156 -2.207031 0.910156 -2.445312 C 0.910156 -2.695312 1.117188 -2.859375 1.710938 -2.859375 C 2.160156 -2.859375 2.539062 -2.753906 2.703125 -2.675781 L 2.664062 -3.25 C 2.484375 -3.316406 2.089844 -3.410156 1.644531 -3.410156 C 0.714844 -3.410156 0.296875 -3.03125 0.296875 -2.425781 C 0.296875 -1.898438 0.542969 -1.605469 1.191406 -1.472656 L 1.746094 -1.359375 C 2.148438 -1.28125 2.253906 -1.167969 2.253906 -0.917969 C 2.253906 -0.652344 2.046875 -0.476562 1.46875 -0.476562 C 0.976562 -0.476562 0.507812 -0.601562 0.296875 -0.695312 L 0.398438 -0.113281 C 0.59375 -0.03125 1.039062 0.0742188 1.511719 0.0742188 Z M 1.511719 0.0742188 "/></g></g></g><g fill="#ffffff" fill-opacity="1"><g transform="translate(17.879409, 79.337176)"><g><path d="M 1.878906 -0.746094 L 2.136719 -0.257812 L 2.703125 0 L 4.503906 0.078125 L 5.789062 -0.0273438 L 6.328125 -0.257812 L 6.640625 -1.027344 L 6.5625 -1.851562 L 6.613281 -2.339844 L 6.585938 -5.070312 L 6.820312 -5.582031 L 7.332031 -5.816406 L 7.898438 -5.867188 L 8.441406 -5.765625 L 8.953125 -5.867188 L 9.46875 -5.816406 L 10.007812 -5.839844 L 10.523438 -5.789062 L 11.578125 -5.839844 L 12.121094 -6.097656 L 12.375 -6.894531 L 12.351562 -9.1875 L 12.09375 -9.699219 L 11.554688 -9.90625 L 10.292969 -9.957031 L 8.929688 -9.855469 L 7.925781 -9.984375 L 7.359375 -9.957031 L 6.84375 -10.164062 L 6.5625 -10.703125 L 6.5625 -11.425781 L 6.613281 -11.914062 L 6.5625 -13.070312 L 6.820312 -13.585938 L 7.308594 -13.921875 L 8.132812 -13.921875 L 8.878906 -13.871094 L 9.339844 -13.894531 L 9.855469 -13.871094 L 10.394531 -13.921875 L 12.351562 -13.871094 L 12.867188 -14.125 L 13.125 -14.640625 L 13.070312 -15.953125 L 13.125 -16.929688 L 12.8125 -17.703125 L 12.375 -17.988281 L 10.832031 -17.960938 L 10.265625 -18.039062 L 9.261719 -17.988281 L 8.800781 -18.039062 L 8.027344 -17.988281 L 7.511719 -18.011719 L 6.714844 -17.960938 L 5.710938 -17.960938 L 5.25 -18.011719 L 3.9375 -18.011719 L 3.398438 -17.960938 L 2.675781 -17.988281 L 2.109375 -17.703125 L 1.957031 -17.238281 L 1.878906 -16.183594 L 1.957031 -15.414062 L 1.851562 -12.53125 L 1.902344 -12.09375 L 1.929688 -11.554688 L 1.878906 -11.089844 L 1.929688 -10.5 L 1.878906 -10.035156 L 1.851562 -9.546875 L 1.902344 -9.058594 L 1.851562 -8.464844 Z M 1.878906 -0.746094 "/></g></g></g></svg>